<svg id="visual" viewBox="0 0 960 540" width="960" height="540" xmlns="http://www.w3.org/2000/svg" xmlns:xlink="http://www.w3.org/1999/xlink" version="1.1"><path d="M0 360L22.8 377.8C45.7 395.7 91.3 431.3 137 454.3C182.7 477.3 228.3 487.7 274 489.2C319.7 490.7 365.3 483.3 411.2 471C457 458.7 503 441.3 548.8 419.3C594.7 397.3 640.3 370.7 686 361.2C731.7 351.7 777.3 359.3 823 369.2C868.7 379 914.3 391 937.2 397L960 403L960 541L937.2 541C914.3 541 868.7 541 823 541C777.3 541 731.7 541 686 541C640.3 541 594.7 541 548.8 541C503 541 457 541 411.2 541C365.3 541 319.7 541 274 541C228.3 541 182.7 541 137 541C91.3 541 45.7 541 22.8 541L0 541Z" fill="#F2ECFF" stroke-linecap="round" stroke-linejoin="miter"></path></svg>