<svg width="15" height="18" viewBox="0 0 15 18" fill="none" xmlns="http://www.w3.org/2000/svg">
<path d="M14 7.54545C14 12.6364 7.5 17 7.5 17C7.5 17 1 12.6364 1 7.54545C1 5.80949 1.68482 4.14463 2.90381 2.91712C4.12279 1.68961 5.77609 1 7.5 1C9.22391 1 10.8772 1.68961 12.0962 2.91712C13.3152 4.14463 14 5.80949 14 7.54545Z" stroke="white" stroke-linecap="round" stroke-linejoin="round"/>
<path d="M7.49992 9.72728C8.69654 9.72728 9.66659 8.75045 9.66659 7.54547C9.66659 6.34048 8.69654 5.36365 7.49992 5.36365C6.3033 5.36365 5.33325 6.34048 5.33325 7.54547C5.33325 8.75045 6.3033 9.72728 7.49992 9.72728Z" stroke="white" stroke-linecap="round" stroke-linejoin="round"/>
</svg>
